# xmcd
#
# Track frame offsets:
#	150
#	14480
#	24653
#	39730
#	53515
#	67075
#	81853
#	98898
#	110463
#	125068
#	135238
#	150810
#	162688
#	177988
#
# Disc length: 2500 seconds
#
# Revision: 0
# Processed by: cddbd v1.4PL0 Copyright (c) Steve Scherf et al.
# Submitted via: EasyCDDAExtractor 5.0.5.1
#
DISCID=b609c20e
DTITLE=Wes Homner - It Won't Be Long Now
DYEAR=1900
DGENRE=Bluegrass
TTITLE0=Coming Down
TTITLE1=Angel Band
TTITLE2=Always There
TTITLE3=Lord, How Delightful
TTITLE4=The Darkest Hour Is Just Before The Dawn
TTITLE5=Thank You Lord
TTITLE6=Dividing Line
TTITLE7=Leaning On Jesus
TTITLE8=Rock Me Gently
TTITLE9=Jesus Bought Me
TTITLE10=It Won't Be Long Now
TTITLE11=The Dying Saint
TTITLE12=The Power of God
TTITLE13=On The Other Side
EXTD=
EXTT0=
EXTT1=
EXTT2=
EXTT3=
EXTT4=
EXTT5=
EXTT6=
EXTT7=
EXTT8=
EXTT9=
EXTT10=
EXTT11=
EXTT12=
EXTT13=
PLAYORDER=
